<svg xmlns="http://www.w3.org/2000/svg" width="100" height="100" viewBox="0 0 100 100" fill="none">
  <path d="M35 85.16 L32 85.3 L29 84.4 L27 83.37 L24.1 81 L20.55 77 L14.73 69 L7.63 58 L6.7 56 L5.77 52 L5.72 49 L6.57 45 L10.62 32 L12 29.34 L14 27.42 L15 26.72 L17 26.28 L21 26.03 L26 25.28 L31 23.53 L35 22.97 L40 22.94 L40.37 23 L40.6 24 L37.88 27 L34 30.31 L31 31.56 L29 32.89 L27.86 34 L26.63 36 L26.34 38 L26.47 40 L26.67 41 L28 42.9 L30 44.52 L32 45.43 L36 45.78 L41 45.13 L46 43.41 L50 41.5 L57 47.94 L73.33 64 L74.31 66 L74.39 67 L74.19 68 L73.59 69 L72.81 70 L71.59 71 L71 71.39 L70 71.56 L68 71.46 L66.06 70 L56 59.9 L55 59.38 L54 59.43 L53.38 60 L53.17 61 L53.6 62 L62.48 71 L62.89 72 L62.94 73 L62.47 74 L61 75.32 L59 76.31 L57 76.53 L55 76.17 L53 74.6 L45 66.59 L44 65.89 L43 65.94 L42.13 67 L42.24 68 L42.91 69 L50 76.16 L50.55 77 L50.78 78 L50.59 79 L49.76 80 L48 81.34 L45 82.17 L44 81.98 L42 81.21 L34.57 74 L34 73.58 L33 73.63 L32.58 74 L32.12 75 L32.42 76 L36.33 80 L37.16 81 L37.52 82 L37.53 83 L37 83.94 L35 85.16 Z
    M77 62.46 L76 62.36 L52 38.68 L51 37.97 L50 37.86 L45 40.43 L40 42.19 L38 42.52 L35 42.62 L33 42.43 L32 42.04 L30.5 41 L29.68 40 L29.47 39 L29.62 37 L30.38 36 L32 34.61 L35 33.3 L38 31.25 L41.34 28 L43.95 25 L45.19 24 L46 23.51 L48 23 L64 22.97 L69 23.74 L74 25.47 L78 26.03 L82 26.15 L85 26.76 L86.7 28 L88 29.42 L89.33 32 L92.42 42 L93.03 45 L93.11 47 L92.5 50 L92.24 51 L91.19 53 L90 54.48 L88 56.39 L85 58.25 L84 58.6 L77 62.46 Z" fill="#2563eb" fill-rule="evenodd" clip-rule="evenodd"/>
</svg>
