<svg xmlns="http://www.w3.org/2000/svg" width="100" height="100" viewBox="0 0 100 100" fill="none">
  <path d="M52 60.1 L50 60.4 L48 60.31 L45 59.44 L10 44.35 L8.45 43 L7.74 42 L7.46 40 L7.9 38 L9 36.6 L10 35.95 L20 31.57 L21 31.27 L22 31.29 L26 32.75 L34 36.29 L45 40.7 L46 41.29 L49 42.42 L50 42.43 L51 41.79 L51.57 41 L51.7 40 L51.5 39 L50 37.72 L29 29.06 L28.42 28 L42 22.25 L45 20.77 L49 19.87 L50.74 20 L54 20.76 L62 24.35 L68 26.75 L71 28.25 L75 29.79 L89 35.96 L90 36.61 L91.1 38 L91.54 40 L91.26 42 L90.54 43 L89 44.35 L73 51.35 L67 53.72 L64 55.21 L60 56.74 L57 58.25 L52 60.1 Z
    M26 90.06 L23 90.06 L22 89.61 L21.11 89 L20.37 88 L19.86 87 L19.73 86 L19.74 80 L19.93 79 L21.24 77 L21.43 76 L21.43 56 L21.48 55 L22 54.55 L34 59.7 L35 60.3 L39 61.83 L42 63.32 L45 64.44 L49 65.06 L51 64.95 L55 64.09 L77 54.57 L77.5 55 L77.49 63 L77.33 64 L76.46 66 L73.97 69 L70 72.22 L68 73.4 L64 75.22 L60 76.43 L55 77.37 L49 77.56 L44 77.35 L39 76.45 L35 75.24 L31 73.4 L28 71.59 L27.62 72 L27.57 76 L27.76 77 L28.57 78 L29.26 80 L29.27 86 L29.14 87 L28 88.88 L26 90.06 Z" fill="#2563eb" fill-rule="evenodd" clip-rule="evenodd"/>
</svg>
