<svg xmlns="http://www.w3.org/2000/svg" width="100" height="100" viewBox="0 0 100 100" fill="none">
  <path d="M57 83.04 L55 83.44 L50 83.76 L43 83.32 L39 82.3 L36 81.17 L31 78.46 L28 76.37 L25.44 74 L22.63 71 L20.53 68 L17.82 63 L16.69 60 L15.67 56 L15.23 50 L15.67 43 L16.68 39 L17.82 36 L20.53 31 L23.53 27 L27 23.53 L29 21.9 L34 18.76 L36 17.82 L39 16.68 L43 15.67 L50 15.24 L56 15.67 L60 16.69 L63 17.82 L68 20.53 L71 22.63 L74 25.44 L76.37 28 L78.46 31 L81.17 36 L82.3 39 L83.32 43 L83.77 49 L83.32 56 L82.3 60 L81.17 63 L78.46 68 L75.47 72 L72 75.46 L70 77.07 L67 79.12 L63 81.17 L60 82.3 L57 83.04 Z
    M55.3 77 L58 76.38 L63 74.24 L66 72.33 L68.68 70 L69.14 69 L66.9 66 L65.62 63 L65.24 59 L65.7 56 L68 53.76 L70 52.78 L75 52.2 L75.19 52 L75.18 51 L75.01 50 L74 49.32 L70 49.73 L69.13 49 L68.9 48 L69.36 46 L69.18 44 L67.51 40 L66.75 37 L66.98 35 L67.42 34 L70.58 31 L70 30.37 L66 26.68 L61 23.78 L58 22.64 L54 21.69 L48 21.46 L47 21.65 L46.62 22 L45.8 23 L45.56 24 L46.2 25 L49.31 27 L50.17 28 L50.56 29 L51.03 32 L50.52 34 L49.44 36 L47 38.18 L43 39.17 L42 39.77 L40 42.01 L38 42.66 L36 44.33 L34.64 46 L34.33 50 L33.16 54 L32 55.67 L31 56.59 L30 57.2 L29 57.35 L28 57.17 L27 56.48 L25.54 54 L24.25 50 L23 48.4 L22 48.15 L21.44 49 L21.68 54 L22.62 58 L24.75 63 L26.68 66 L28 67.57 L33 72.31 L36 74.24 L38 75.22 L41 76.38 L44 77.13 L46 77.43 L50 77.55 L53 77.43 L55.3 77 Z
    M52 68.48 L50 68.44 L47 66.61 L45 67.36 L44 67.35 L43 66.98 L41.59 66 L40.66 64 L40.76 61 L41.55 58 L43 56.27 L44 55.67 L45 55.58 L47 56.04 L51 55.03 L52 55.38 L52.83 56 L54 57.41 L55.2 60 L55.4 62 L55.19 64 L54 66.9 L52.94 68 L52 68.48 Z" fill="#2563eb" fill-rule="evenodd" clip-rule="evenodd"/>
</svg>
