<svg width="100" height="100" viewBox="0 0 100 100" fill="none" xmlns="http://www.w3.org/2000/svg" role="img" aria-label="Power Platform iOS filled icon">
  <g transform="translate(7 7) scale(0.8958333333)" fill="#2563eb">
    <path d="M38.1026 71.6921L31.6529 91.0414C30.1188 95.6436 24.4821 97.328 20.6746 94.322L4.89891 81.8676C1.95908 79.5466 0.78931 75.6321 1.97376 72.0787C3.18381 68.4486 6.58102 66 10.4075 66H46C42.4169 66 39.2357 68.2928 38.1026 71.6921Z"/>
    <path d="M24.3245 30H60.8335C74.7805 30 89.1466 40.0237 85.2858 51.5882L95.406 21.2744C98.1908 13.1151 89.4514 0 69.8184 0H30.3245C27.7419 0 25.4491 1.65259 24.6324 4.10265L18.6324 22.1026C17.3374 25.9878 20.2292 30 24.3245 30Z"/>
    <path d="M59.8325 65.9999L11.2076 65.9999C6.9044 65.9999 3.08387 68.7528 1.72181 72.8344L11.7208 42.8376C13.0819 38.7542 16.9033 35.9999 21.2076 35.9999L69.8147 35.9999C83.2662 35.9999 92.6205 29.6694 95.5007 21.0261L85.2939 51.6972C82.952 58.6938 74.4997 65.9999 59.8325 65.9999Z"/>
  </g>
</svg>
